HIERARCHY
ROOT RootJoint
{
    OFFSET   0.000000   0.000000   0.000000
    CHANNELS 6 Xposition Yposition Zposition Xrotation Yrotation Zrotation
    JOINT pelvis_lowerback
    {
        OFFSET   0.000000   0.093605   0.000000
        CHANNELS 3 Xrotation Yrotation Zrotation
        JOINT lowerback_torso
        {
            OFFSET   0.000000   0.100000   0.000000
            CHANNELS 3 Xrotation Yrotation Zrotation
            JOINT torso_head
            {
                OFFSET   0.000000   0.282350   0.000000
                CHANNELS 3 Xrotation Yrotation Zrotation
                End Site
                {
                    OFFSET   0.000000   0.192650   0.000000
                }
            }
            JOINT rTorso_Clavicle
            {
                OFFSET  -0.001000   0.157500   0.000000
                CHANNELS 3 Xrotation Yrotation Zrotation
                JOINT rShoulder
                {
                    OFFSET  -0.117647   0.000000   0.000000
                    CHANNELS 3 Xrotation Yrotation Zrotation
                    JOINT rElbow
                    {
                        OFFSET  -0.245000   0.000000   0.000000
                        CHANNELS 3 Xrotation Yrotation Zrotation
                        JOINT rWrist
                        {
                            OFFSET  -0.240000   0.000000   0.000000
                            CHANNELS 3 Xrotation Yrotation Zrotation
                            End Site
                            {
                                OFFSET  -0.116353  -0.002500   0.000000
                            }
                        }
                    }
                }
            }
            JOINT lTorso_Clavicle
            {
                OFFSET   0.001000   0.157500   0.000000
                CHANNELS 3 Xrotation Yrotation Zrotation
                JOINT lShoulder
                {
                    OFFSET   0.117647   0.000000   0.000000
                    CHANNELS 3 Xrotation Yrotation Zrotation
                    JOINT lElbow
                    {
                        OFFSET   0.245000   0.000000   0.000000
                        CHANNELS 3 Xrotation Yrotation Zrotation
                        JOINT lWrist
                        {
                            OFFSET   0.240000   0.000000   0.000000
                            CHANNELS 3 Xrotation Yrotation Zrotation
                            End Site
                            {
                                OFFSET   0.116353  -0.002500   0.000000
                            }
                        }
                    }
                }
            }
        }
    }
    JOINT rHip
    {
        OFFSET  -0.100000  -0.051395   0.000000
        CHANNELS 3 Xrotation Yrotation Zrotation
        JOINT rKnee
        {
            OFFSET   0.000000  -0.410000   0.000000
            CHANNELS 3 Xrotation Yrotation Zrotation
            JOINT rAnkle
            {
                OFFSET   0.000000  -0.390000   0.000000
                CHANNELS 3 Xrotation Yrotation Zrotation
                JOINT rToeJoint
                {
                    OFFSET   0.000000  -0.050000   0.130000
                    CHANNELS 3 Xrotation Yrotation Zrotation
                    End Site
                    {
                        OFFSET  -0.010000   0.002000   0.060000
                    }
                }
            }
        }
    }
    JOINT lHip
    {
        OFFSET   0.100000  -0.051395   0.000000
        CHANNELS 3 Xrotation Yrotation Zrotation
        JOINT lKnee
        {
            OFFSET   0.000000  -0.410000   0.000000
            CHANNELS 3 Xrotation Yrotation Zrotation
            JOINT lAnkle
            {
                OFFSET   0.000000  -0.390000   0.000000
                CHANNELS 3 Xrotation Yrotation Zrotation
                JOINT lToeJoint
                {
                    OFFSET   0.000000  -0.050000   0.130000
                    CHANNELS 3 Xrotation Yrotation Zrotation
                    End Site
                    {
                        OFFSET   0.010000   0.002000   0.060000
                    }
                }
            }
        }
    }
}
MOTION
Frames: 5
Frame Time:   0.008333
 -3.096302   0.880212   4.404492 -29.033248 -76.185190 -24.843710  12.920464   0.102697   1.119140  -1.773875  -4.788241   2.405956   3.788832 -11.056434   1.727004  -0.331696  25.985774  -2.258759  -6.411864  31.237418  36.121796  -0.030953  60.791630   0.039058   0.162866   4.144443   1.701340  -2.239064 -29.955167  11.258084 -25.754071 -47.205168 -41.004557 -179.923831 -85.427415 -179.924508  -2.549049  -1.835046   3.184481  -9.286895   4.016058  -2.645035  39.494938   0.002334   0.030969 -22.952045   1.855297   0.927899  -0.680973  -0.000035   0.000022 -31.195273   0.992048   0.370834  67.978411   0.034485   0.060835  -5.598810   3.184297   3.644540  -4.636212  -0.006276  -0.018964
 -3.102924   0.881943   4.411599 -33.953160 -78.097207 -29.565156  13.034864   0.156539   1.289367  -1.569916  -4.646969   2.525694   3.827151 -11.075942   1.769572  -0.363810  25.689721  -2.198598  -6.026187  30.744146  35.961569  -0.036118  61.244898   0.045956   0.072198   4.151909   1.707709  -2.058039 -29.674002  11.434645 -25.103719 -46.756623 -40.401548 -179.949754 -85.357206 -179.950467  -2.499190  -1.954683   3.051575  -8.800828   5.028675  -3.215450  39.167333   0.001974   0.028798 -22.724822   3.125902   1.209919  -1.263120  -0.000817   0.000348 -32.087483   0.229067  -0.401271  65.645932   0.060496   0.106287  -5.632814   2.350497   3.482884  -4.570094  -0.005669  -0.017207
 -3.109668   0.883608   4.418911 -41.001614 -80.039859 -36.435153  13.143240   0.228456   1.474399  -1.342387  -4.477342   2.641033   3.861716 -11.093905   1.816813  -0.361567  25.352045  -2.166227  -5.633044  30.248482  35.806738  -0.039892  61.668182   0.051111  -0.020482   4.210317   1.754966  -1.831529 -29.316027  11.594544 -24.420836 -46.278056 -39.824972 -179.968844 -85.296669 -179.969623  -2.459893  -2.042256   2.932243  -8.427394   6.024052  -3.807244  38.876487   0.001831   0.027022 -22.452187   4.359401   1.482418  -1.908624  -0.001582   0.001836 -32.823727  -0.649156  -1.062325  63.183707   0.083201   0.150505  -5.674491   1.569205   3.338880  -4.481604  -0.005441  -0.016625
 -3.116548   0.885120   4.426385 -51.480419 -81.840014 -46.750979  13.269566   0.293124   1.660929  -1.099938  -4.315816   2.756523   3.895305 -11.110975   1.865352  -0.344017  24.998298  -2.150245  -5.247809  29.758214  35.654192  -0.042257  62.053361   0.054398  -0.108526   4.231477   1.804004  -1.596356 -28.938938  11.743370 -23.752806 -45.801132 -39.281844 -179.982086 -85.249395 -179.982893  -2.428311  -2.063451   2.801591  -8.121427   6.960492  -4.421659  38.590640   0.001842   0.025858 -22.201852   5.509456   1.734930  -2.506022  -0.002259   0.004067 -33.480152  -1.520600  -1.611257  60.828345   0.096807   0.185028  -5.715890   0.841081   3.209231  -4.397391  -0.005192  -0.016042
 -3.123627   0.886278   4.433974 -67.276006 -83.289553 -62.361136  13.397342   0.343672   1.809609  -0.856935  -4.171492   2.853078   3.930449 -11.127383   1.912165  -0.317537  24.642686  -2.146874  -4.877716  29.282744  35.508973  -0.043536  62.406205   0.056167  -0.192019   4.212189   1.847432  -1.369722 -28.565577  11.886641 -23.119886 -45.339433 -38.774013 -179.991379 -85.210454 -179.992176  -2.402158  -2.043361   2.660478  -7.828935   7.818642  -5.063142  38.268749   0.002126   0.025750 -21.882345   6.578453   1.999449  -4.151477  -0.003895   0.013441 -34.094233  -2.338213  -2.093502  58.635989   0.102418   0.209227  -5.755271   0.161284   3.091040  -4.325376  -0.004833  -0.015174
